<svg width="104" height="27" viewBox="0 0 104 27" fill="none" xmlns="http://www.w3.org/2000/svg">
<path d="M0 0V26.1818H3.75852V7.22301H4.00142L11.723 26.1435H14.8423L22.5639 7.2358H22.8068V26.1818H26.5653V0H21.7713L13.4361 20.3523H13.1293L4.79403 0H0Z" fill="black"/>
<path d="M41.1328 26.5781C45.4155 26.5781 48.4453 24.4688 49.3146 21.2727L45.6967 20.6207C45.0064 22.4744 43.3445 23.4205 41.1712 23.4205C37.8984 23.4205 35.6996 21.2983 35.5973 17.5142H49.5575V16.1591C49.5575 9.06392 45.3132 6.28977 40.8643 6.28977C35.3928 6.28977 31.7876 10.4574 31.7876 16.4915C31.7876 22.5895 35.3416 26.5781 41.1328 26.5781ZM35.6101 14.6506C35.7635 11.8636 37.7834 9.44744 40.8899 9.44744C43.8558 9.44744 45.799 11.6463 45.8118 14.6506H35.6101Z" fill="black"/>
<path d="M68.5131 11.3395C67.7205 8.28409 65.3299 6.28977 61.0856 6.28977C56.6495 6.28977 53.5046 8.62926 53.5046 12.1065C53.5046 14.8935 55.1921 16.7472 58.8739 17.5653L62.1978 18.294C64.0898 18.7159 64.9719 19.5597 64.9719 20.7869C64.9719 22.3082 63.3484 23.4972 60.8427 23.4972C58.5543 23.4972 57.0842 22.5128 56.6239 20.5824L52.9293 21.1449C53.5685 24.6222 56.4577 26.5781 60.8683 26.5781C65.6112 26.5781 68.8967 24.0597 68.8967 20.5057C68.8967 17.7315 67.1325 16.0185 63.5273 15.1875L60.408 14.4716C58.2475 13.9602 57.3143 13.2315 57.3271 11.902C57.3143 10.3935 58.9506 9.3196 61.1239 9.3196C63.5018 9.3196 64.6012 10.6364 65.0487 11.9531L68.5131 11.3395Z" fill="black"/>
<path d="M82.2656 6.54545H78.2386V1.84091H74.4162V6.54545H71.5398V9.61364H74.4162V21.2088C74.4034 24.7756 77.1264 26.5014 80.1435 26.4375C81.358 26.4247 82.1761 26.1946 82.6236 26.0284L81.9332 22.8707C81.6776 22.9219 81.2045 23.0369 80.5909 23.0369C79.3509 23.0369 78.2386 22.6278 78.2386 20.4162V9.61364H82.2656V6.54545Z" fill="black"/>
<path d="M94.5543 26.5781C100.09 26.5781 103.708 22.5256 103.708 16.4531C103.708 10.3423 100.09 6.28977 94.5543 6.28977C89.0188 6.28977 85.4009 10.3423 85.4009 16.4531C85.4009 22.5256 89.0188 26.5781 94.5543 26.5781ZM94.5671 23.3693C90.9492 23.3693 89.2617 20.2116 89.2617 16.4403C89.2617 12.6818 90.9492 9.4858 94.5671 9.4858C98.1594 9.4858 99.8469 12.6818 99.8469 16.4403C99.8469 20.2116 98.1594 23.3693 94.5671 23.3693Z" fill="black"/>
</svg>
